<?xml version="1.0" encoding="UTF-8"?>
<svg id="Layer_1" data-name="Layer 1" xmlns="http://www.w3.org/2000/svg" viewBox="0 0 25 25">
  <path d="M24,12.5c0,1.51-.3,3.01-.88,4.4-.58,1.4-1.42,2.66-2.49,3.73-1.07,1.07-2.34,1.91-3.73,2.49-1.4.58-2.89.88-4.4.88s-3.01-.3-4.4-.88c-1.4-.58-2.66-1.42-3.73-2.49-1.07-1.07-1.91-2.34-2.49-3.73-.58-1.4-.88-2.89-.88-4.4,0-3.05,1.21-5.98,3.37-8.13,2.16-2.16,5.08-3.37,8.13-3.37s5.98,1.21,8.13,3.37c2.16,2.16,3.37,5.08,3.37,8.13Z" style="fill: none; stroke: #fca311; stroke-linecap: round; stroke-linejoin: round; stroke-width: 1.5px;"/>
  <path d="M12.5,7v11M18,12.5H7" style="fill: none; stroke: #fca311; stroke-linecap: round; stroke-linejoin: round; stroke-width: 1.5px;"/>
</svg>