<?xml version="1.0" encoding="UTF-8"?>
<svg id="Layer_1" data-name="Layer 1" xmlns="http://www.w3.org/2000/svg" viewBox="0 0 24 25">
  <path d="M2.25,3.5h1.39c.51,0,.96.34,1.09.84l.38,1.44M5.11,5.77c5.57-.16,11.14.46,16.54,1.84-.82,2.45-1.8,4.84-2.92,7.14H7.5M5.11,5.77l2.39,8.98M7.5,14.75c-.8,0-1.56.32-2.12.88-.56.56-.88,1.33-.88,2.12h15.75M6,20.75c0,.2-.08.39-.22.53-.14.14-.33.22-.53.22s-.39-.08-.53-.22c-.14-.14-.22-.33-.22-.53s.08-.39.22-.53c.14-.14.33-.22.53-.22s.39.08.53.22c.14.14.22.33.22.53ZM18.75,20.75c0,.2-.08.39-.22.53-.14.14-.33.22-.53.22s-.39-.08-.53-.22c-.14-.14-.22-.33-.22-.53s.08-.39.22-.53c.14-.14.33-.22.53-.22s.39.08.53.22c.14.14.22.33.22.53Z" style="fill: none; stroke: #000; stroke-linecap: round; stroke-linejoin: round; stroke-width: 1.5px;"/>
</svg>