<?xml version="1.0" encoding="UTF-8"?>
<svg id="Layer_1" data-name="Layer 1" xmlns="http://www.w3.org/2000/svg" viewBox="0 0 35 35">
  <path d="M13.11,21.86l8.75-8.75M30.61,17.49c0,1.85-.92,3.49-2.32,4.48.15.86.09,1.75-.17,2.59-.26.84-.73,1.6-1.35,2.22-.62.62-1.38,1.08-2.22,1.35-.84.26-1.72.32-2.59.17-.5.72-1.17,1.3-1.95,1.71-.78.4-1.64.62-2.52.61-1.85,0-3.49-.92-4.47-2.32-.86.15-1.75.09-2.59-.17-.84-.26-1.6-.73-2.22-1.35-.62-.62-1.08-1.38-1.35-2.22-.26-.84-.32-1.73-.17-2.59-.72-.5-1.3-1.17-1.71-1.95-.4-.78-.62-1.64-.61-2.52,0-1.85.92-3.49,2.32-4.47-.15-.86-.09-1.75.17-2.59.26-.84.73-1.6,1.35-2.22.62-.62,1.38-1.08,2.22-1.35.84-.26,1.72-.32,2.59-.17.5-.72,1.17-1.3,1.95-1.71.78-.4,1.64-.62,2.52-.62,1.85,0,3.49.92,4.47,2.32.86-.15,1.75-.09,2.59.17.84.26,1.6.73,2.22,1.35.62.62,1.08,1.38,1.35,2.22.26.84.32,1.73.17,2.59.72.5,1.3,1.17,1.71,1.95.4.78.62,1.64.61,2.52ZM14.2,14.21h.01s-.01.01-.01.01h0ZM14.75,14.21c0,.15-.06.28-.16.39-.1.1-.24.16-.39.16s-.28-.06-.39-.16c-.1-.1-.16-.24-.16-.39s.06-.28.16-.39.24-.16.39-.16.28.06.39.16.16.24.16.39ZM20.77,20.77h.01s-.01.01-.01.01h0ZM21.31,20.77c0,.15-.06.28-.16.39s-.24.16-.39.16-.28-.06-.39-.16-.16-.24-.16-.39.06-.28.16-.39.24-.16.39-.16.28.06.39.16.16.24.16.39Z" style="fill: none; stroke: #0a3641; stroke-linecap: round; stroke-linejoin: round; stroke-width: 1.5px;"/>
</svg>