<svg width="42" height="43" viewBox="0 0 42 43" fill="none" xmlns="http://www.w3.org/2000/svg">
<path d="M20.4872 40V37.75H35.1878C35.5581 37.75 35.8787 37.6347 36.1494 37.4041C36.4202 37.1731 36.5556 36.8701 36.5556 36.4951V20.9959C36.5556 16.7817 35.025 13.2617 31.9639 10.4361C28.9024 7.61087 25.2478 6.19825 21 6.19825C16.7522 6.19825 13.0976 7.61087 10.0361 10.4361C6.975 13.2617 5.44444 16.7817 5.44444 20.9959V33.7692H4.33333C3.42444 33.7692 2.64167 33.4583 1.985 32.8366C1.32833 32.2152 1 31.4444 1 30.5241V26.2834C1 25.6114 1.21574 25.0152 1.64722 24.4947C2.07907 23.9738 2.60407 23.5504 3.22222 23.2246L3.26056 20.4599C3.32907 18.1116 3.85407 15.9366 4.83556 13.9349C5.81704 11.9327 7.10907 10.1903 8.71167 8.70756C10.3143 7.22481 12.1761 6.06963 14.2972 5.242C16.4183 4.414 18.6526 4 21 4C23.3474 4 25.5796 4.414 27.6967 5.242C29.8133 6.06963 31.6752 7.22275 33.2822 8.70138C34.8889 10.1796 36.1809 11.9196 37.1583 13.9214C38.1354 15.9235 38.6624 18.0985 38.7394 20.4464L38.7778 23.1554C39.3674 23.4351 39.8852 23.8116 40.3311 24.2849C40.777 24.7577 41 25.3259 41 25.9893V30.8616C41 31.525 40.777 32.0933 40.3311 32.5666C39.8852 33.0394 39.3674 33.4158 38.7778 33.6955V36.4951C38.7778 37.4731 38.4281 38.3016 37.7289 38.9807C37.0293 39.6602 36.1822 40 35.1878 40H20.4872ZM15.1878 25.4616C14.7293 25.4616 14.3298 25.3037 13.9894 24.988C13.6491 24.6719 13.4789 24.2817 13.4789 23.8174C13.4789 23.3528 13.6491 22.9555 13.9894 22.6255C14.3298 22.2951 14.7293 22.1299 15.1878 22.1299C15.6467 22.1299 16.0463 22.2951 16.3867 22.6255C16.727 22.9555 16.8972 23.3528 16.8972 23.8174C16.8972 24.2817 16.727 24.6719 16.3867 24.988C16.0463 25.3037 15.6467 25.4616 15.1878 25.4616ZM26.8122 25.4616C26.3533 25.4616 25.9537 25.3037 25.6133 24.988C25.273 24.6719 25.1028 24.2817 25.1028 23.8174C25.1028 23.3528 25.273 22.9555 25.6133 22.6255C25.9537 22.2951 26.3533 22.1299 26.8122 22.1299C27.2707 22.1299 27.6702 22.2951 28.0106 22.6255C28.3509 22.9555 28.5211 23.3528 28.5211 23.8174C28.5211 24.2817 28.3509 24.6719 28.0106 24.988C27.6702 25.3037 27.2707 25.4616 26.8122 25.4616ZM9.26056 21.8875C9.05833 18.5181 10.1296 15.6466 12.4744 13.2728C14.8193 10.8987 17.6981 9.71162 21.1111 9.71162C23.98 9.71162 26.522 10.5835 28.7372 12.3272C30.9524 14.071 32.305 16.3621 32.795 19.2004C29.852 19.1629 27.1206 18.4028 24.6006 16.9201C22.0806 15.4373 20.1467 13.3748 18.7989 10.7326C18.2633 13.3287 17.1487 15.604 15.455 17.5585C13.7613 19.5126 11.6965 20.9556 9.26056 21.8875Z" fill="#0A3641"/>
</svg>
