<?xml version="1.0" encoding="UTF-8"?>
<svg id="Layer_1" data-name="Layer 1" xmlns="http://www.w3.org/2000/svg" viewBox="0 0 24 24">
  <path d="M14.74,9l-.35,9M9.61,18l-.35-9M19.23,5.79c.34.05.68.11,1.02.17M19.23,5.79l-1.07,13.88c-.04.57-.3,1.09-.72,1.48-.42.39-.96.6-1.53.6h-7.83c-.57,0-1.11-.21-1.53-.6-.42-.39-.67-.91-.71-1.48l-1.07-13.88M19.23,5.79c-1.15-.17-2.31-.31-3.48-.4M4.77,5.79c-.34.05-.68.11-1.02.16M4.77,5.79c1.15-.17,2.31-.31,3.48-.4M15.75,5.39v-.92c0-1.18-.91-2.16-2.09-2.2-1.11-.04-2.21-.04-3.32,0-1.18.04-2.09,1.02-2.09,2.2v.92M15.75,5.39c-2.5-.19-5-.19-7.5,0" style="fill: none; stroke: #960000; stroke-linecap: round; stroke-linejoin: round; stroke-width: 1.5px;"/>
</svg>