<svg width="35" height="24" viewBox="0 0 35 24" fill="none" xmlns="http://www.w3.org/2000/svg">
<path opacity="0.4" d="M9.91066 24C8.73312 24 7.73007 23.5824 6.90149 22.7473C6.07291 21.9121 5.65862 20.9011 5.65862 19.7143H1.86452L2.23742 18H6.0936C6.40116 17.2374 6.89723 16.6181 7.58181 16.1421C8.26639 15.6664 9.04267 15.4286 9.91066 15.4286C10.7786 15.4286 11.5549 15.6664 12.2395 16.1421C12.9241 16.6181 13.4201 17.2374 13.7277 18H21.5808L25.3162 1.71429H6.69229L6.73141 1.54629C6.81418 1.09772 7.02947 0.727857 7.37729 0.436714C7.72511 0.145572 8.13557 0 8.60868 0H27.4422L26.065 6H29.601L34.2128 12.198L32.7407 19.7143H30.7784C30.7784 20.9011 30.3641 21.9121 29.5355 22.7473C28.7069 23.5824 27.7039 24 26.5264 24C25.3488 24 24.3458 23.5824 23.5172 22.7473C22.6886 21.9121 22.2743 20.9011 22.2743 19.7143H14.1627C14.1627 20.9011 13.7484 21.9121 12.9198 22.7473C12.0912 23.5824 11.0882 24 9.91066 24ZM24.1746 14.1429H32.0867L32.3878 12.6163L28.7506 7.71429H25.6594L24.1746 14.1429ZM24.9042 3.432L25.3162 1.71429L21.5808 18L21.9928 16.2823L23.3407 10.2891L24.9042 3.432ZM0 13.7109L0.425204 11.9966H8.04614L7.62093 13.7109H0ZM3.40163 7.71772L3.82684 6.00343H13.1486L12.7234 7.71772H3.40163ZM9.91066 22.2857C10.6105 22.2857 11.2108 22.0336 11.7114 21.5293C12.2117 21.0247 12.4619 20.4197 12.4619 19.7143C12.4619 19.0089 12.2117 18.4039 11.7114 17.8993C11.2108 17.395 10.6105 17.1429 9.91066 17.1429C9.21077 17.1429 8.61052 17.395 8.10992 17.8993C7.60959 18.4039 7.35943 19.0089 7.35943 19.7143C7.35943 20.4197 7.60959 21.0247 8.10992 21.5293C8.61052 22.0336 9.21077 22.2857 9.91066 22.2857ZM26.5264 22.2857C27.2262 22.2857 27.8265 22.0336 28.3271 21.5293C28.8274 21.0247 29.0776 20.4197 29.0776 19.7143C29.0776 19.0089 28.8274 18.4039 28.3271 17.8993C27.8265 17.395 27.2262 17.1429 26.5264 17.1429C25.8265 17.1429 25.2262 17.395 24.7256 17.8993C24.2253 18.4039 23.9751 19.0089 23.9751 19.7143C23.9751 20.4197 24.2253 21.0247 24.7256 21.5293C25.2262 22.0336 25.8265 22.2857 26.5264 22.2857Z" fill="#0A3641"/>
</svg>
