<?xml version="1.0" encoding="UTF-8"?>
<svg id="Layer_1" data-name="Layer 1" xmlns="http://www.w3.org/2000/svg" viewBox="0 0 24 24">
  <path d="M7.5,19c-.69,0-1.28-.24-1.77-.73-.49-.49-.73-1.08-.73-1.77h-2.23l.22-1h2.27c.18-.44.47-.81.88-1.08.4-.28.86-.42,1.37-.42s.97.14,1.37.42c.4.28.69.64.88,1.08h4.62l2.2-9.5H5.61l.02-.1c.05-.26.18-.48.38-.65.2-.17.45-.25.72-.25h11.07l-.81,3.5h2.08l2.71,3.62-.87,4.38h-1.15c0,.69-.24,1.28-.73,1.77-.49.49-1.08.73-1.77.73s-1.28-.24-1.77-.73c-.49-.49-.73-1.08-.73-1.77h-4.77c0,.69-.24,1.28-.73,1.77-.49.49-1.08.73-1.77.73ZM15.89,13.25h4.65l.18-.89-2.14-2.86h-1.82l-.87,3.75ZM16.32,7l.24-1-2.2,9.5.24-1,.79-3.5.92-4ZM1.67,13l.25-1h4.48l-.25,1H1.67ZM3.67,9.5l.25-1h5.48l-.25,1H3.67ZM7.5,18c.41,0,.76-.15,1.06-.44.29-.29.44-.65.44-1.06s-.15-.76-.44-1.06c-.29-.29-.65-.44-1.06-.44s-.76.15-1.06.44c-.29.29-.44.65-.44,1.06s.15.76.44,1.06c.29.29.65.44,1.06.44ZM17.27,18c.41,0,.76-.15,1.06-.44.29-.29.44-.65.44-1.06s-.15-.76-.44-1.06c-.29-.29-.65-.44-1.06-.44s-.76.15-1.06.44c-.29.29-.44.65-.44,1.06s.15.76.44,1.06c.29.29.65.44,1.06.44Z" style="fill: #0a3641;"/>
</svg>