<?xml version="1.0" encoding="UTF-8"?>
<svg id="Layer_1" data-name="Layer 1" xmlns="http://www.w3.org/2000/svg" viewBox="0 0 24 24">
  <path d="M12,21c1.99,0,3.93-.66,5.51-1.88,1.58-1.22,2.7-2.93,3.2-4.86M12,21c-1.99,0-3.93-.66-5.51-1.88-1.58-1.22-2.7-2.93-3.2-4.86M12,21c2.48,0,4.5-4.03,4.5-9S14.48,3,12,3M12,21c-2.48,0-4.5-4.03-4.5-9S9.52,3,12,3M20.72,14.25c.18-.72.28-1.48.28-2.25,0-1.55-.4-3.07-1.16-4.42M20.72,14.25c-2.67,1.48-5.67,2.25-8.72,2.25-3.16,0-6.13-.81-8.72-2.25M3.28,14.25c-.19-.74-.28-1.49-.28-2.25,0-1.6.42-3.11,1.16-4.42M12,3c1.6,0,3.16.42,4.54,1.23,1.38.81,2.52,1.96,3.3,3.35M12,3c-1.6,0-3.16.42-4.54,1.23-1.38.81-2.52,1.96-3.3,3.35M19.84,7.58c-2.18,1.89-4.96,2.92-7.84,2.92-3,0-5.74-1.1-7.84-2.92" style="fill: none; stroke: #0a3641; stroke-linecap: round; stroke-linejoin: round; stroke-width: 1.5px;"/>
</svg>