<?xml version="1.0" encoding="UTF-8"?>
<svg id="Layer_1" data-name="Layer 1" xmlns="http://www.w3.org/2000/svg" viewBox="0 0 24 25">
  <path d="M11.25,11.63l.04-.02c.13-.06.27-.09.41-.07.14.02.28.07.39.16.11.09.2.21.24.35.05.14.05.28.02.42l-.71,2.84c-.03.14-.03.29.02.42.05.14.13.26.24.35.11.09.25.15.39.16.14.02.29-.01.41-.07l.04-.02M21,12.38c0,1.18-.23,2.35-.69,3.44-.45,1.09-1.12,2.08-1.95,2.92s-1.83,1.5-2.92,1.95c-1.09.45-2.26.69-3.44.69s-2.35-.23-3.44-.69c-1.09-.45-2.08-1.12-2.92-1.95-.84-.84-1.5-1.83-1.95-2.92-.45-1.09-.69-2.26-.69-3.44,0-2.39.95-4.68,2.64-6.36,1.69-1.69,3.98-2.64,6.36-2.64s4.68.95,6.36,2.64c1.69,1.69,2.64,3.98,2.64,6.36ZM12,8.63h0s0,0,0,0h0Z" style="fill: none; stroke: #0a3641; stroke-linecap: round; stroke-linejoin: round; stroke-width: 1.5px;"/>
</svg>