<?xml version="1.0" encoding="UTF-8"?>
<svg id="Layer_1" data-name="Layer 1" xmlns="http://www.w3.org/2000/svg" viewBox="0 0 24 25">
  <path d="M15.75,6.5c0,.99-.4,1.95-1.1,2.65-.7.7-1.66,1.1-2.65,1.1s-1.95-.4-2.65-1.1c-.7-.7-1.1-1.66-1.1-2.65s.4-1.95,1.1-2.65c.7-.7,1.66-1.1,2.65-1.1s1.95.4,2.65,1.1c.7.7,1.1,1.66,1.1,2.65ZM4.5,20.62c.03-1.97.84-3.84,2.24-5.22,1.4-1.38,3.29-2.15,5.26-2.15s3.86.77,5.26,2.15c1.4,1.38,2.21,3.26,2.24,5.22-2.35,1.08-4.91,1.64-7.5,1.63-2.68,0-5.22-.58-7.5-1.63Z" style="fill: none; stroke: #000; stroke-linecap: round; stroke-linejoin: round; stroke-width: 1.5px;"/>
</svg>