<?xml version="1.0" encoding="UTF-8"?>
<svg id="Layer_1" data-name="Layer 1" xmlns="http://www.w3.org/2000/svg" viewBox="0 0 24 24">
  <path d="M3.75,6c0-.6.24-1.17.66-1.59s.99-.66,1.59-.66h2.25c.6,0,1.17.24,1.59.66.42.42.66.99.66,1.59v2.25c0,.6-.24,1.17-.66,1.59-.42.42-.99.66-1.59.66h-2.25c-.6,0-1.17-.24-1.59-.66-.42-.42-.66-.99-.66-1.59v-2.25ZM3.75,15.75c0-.6.24-1.17.66-1.59.42-.42.99-.66,1.59-.66h2.25c.6,0,1.17.24,1.59.66.42.42.66.99.66,1.59v2.25c0,.6-.24,1.17-.66,1.59-.42.42-.99.66-1.59.66h-2.25c-.6,0-1.17-.24-1.59-.66-.42-.42-.66-.99-.66-1.59v-2.25ZM13.5,6c0-.6.24-1.17.66-1.59.42-.42.99-.66,1.59-.66h2.25c.6,0,1.17.24,1.59.66.42.42.66.99.66,1.59v2.25c0,.6-.24,1.17-.66,1.59-.42.42-.99.66-1.59.66h-2.25c-.6,0-1.17-.24-1.59-.66-.42-.42-.66-.99-.66-1.59v-2.25ZM13.5,15.75c0-.6.24-1.17.66-1.59.42-.42.99-.66,1.59-.66h2.25c.6,0,1.17.24,1.59.66.42.42.66.99.66,1.59v2.25c0,.6-.24,1.17-.66,1.59-.42.42-.99.66-1.59.66h-2.25c-.6,0-1.17-.24-1.59-.66-.42-.42-.66-.99-.66-1.59v-2.25Z" style="fill: none; stroke: #0a3641; stroke-linecap: round; stroke-linejoin: round; stroke-width: 1.5px;"/>
</svg>