<?xml version="1.0" encoding="UTF-8"?>
<svg id="Layer_1" data-name="Layer 1" xmlns="http://www.w3.org/2000/svg" viewBox="0 0 231 236">
  <path d="M202.43,144.84l10.34-10.34c2.13-2.13,3.83-4.67,4.98-7.46,1.15-2.79,1.75-5.78,1.75-8.8s-.6-6.01-1.75-8.8c-1.15-2.79-2.85-5.32-4.98-7.46l-10.34-10.34c-2.13-2.13-3.83-4.67-4.98-7.46-1.15-2.79-1.75-5.78-1.75-8.8v-14.61c0-6.09-2.42-11.94-6.73-16.25-4.31-4.31-10.15-6.73-16.25-6.73h-14.62c-3.02,0-6.01-.59-8.79-1.75-2.79-1.15-5.32-2.85-7.46-4.98l-10.34-10.34c-2.13-2.13-4.67-3.83-7.46-4.98-2.79-1.16-5.78-1.75-8.8-1.75s-6.01.59-8.79,1.75c-2.79,1.16-5.32,2.85-7.46,4.98l-10.34,10.34c-2.13,2.13-4.67,3.83-7.46,4.98-2.79,1.15-5.78,1.75-8.79,1.75h-14.61c-3.02,0-6.01.59-8.8,1.75-2.79,1.15-5.32,2.85-7.46,4.98-2.14,2.13-3.83,4.67-4.98,7.46-1.16,2.79-1.75,5.78-1.75,8.8v14.62c0,6.1-2.42,11.94-6.73,16.25l-10.34,10.34c-2.13,2.13-3.83,4.67-4.98,7.46-1.16,2.79-1.75,5.78-1.75,8.79s.59,6.01,1.75,8.8c1.16,2.79,2.85,5.32,4.98,7.46l10.34,10.34c4.31,4.31,6.73,10.15,6.73,16.25v14.62c0,6.1,2.42,11.94,6.73,16.25,4.31,4.31,10.16,6.73,16.25,6.73h14.62c6.1,0,11.94,2.42,16.25,6.73l10.34,10.34c2.13,2.13,4.67,3.83,7.46,4.98s5.78,1.75,8.79,1.75,6.01-.6,8.8-1.75c2.79-1.15,5.32-2.85,7.46-4.98l10.34-10.34c4.31-4.31,10.16-6.73,16.25-6.73h14.62c6.1,0,11.94-2.42,16.25-6.73s6.73-10.16,6.73-16.25v-14.62c0-6.1,2.42-11.95,6.73-16.26Z" style="fill: none; stroke: #027372; stroke-linecap: round; stroke-linejoin: round; stroke-width: 18px;"/>
  <path d="M80.5,129.82l26.06,26.06,43.44-60.81" style="fill: none; stroke: #027372; stroke-linecap: round; stroke-linejoin: round; stroke-width: 18px;"/>
</svg>