<svg width="42" height="43" viewBox="0 0 42 43" fill="none" xmlns="http://www.w3.org/2000/svg">
<path d="M21 9V33M15 27.364L16.758 28.682C19.1 30.44 22.898 30.44 25.242 28.682C27.586 26.924 27.586 24.076 25.242 22.318C24.072 21.438 22.536 21 21 21C19.55 21 18.1 20.56 16.994 19.682C14.782 17.924 14.782 15.076 16.994 13.318C19.206 11.56 22.794 11.56 25.006 13.318L25.836 13.978M39 21C39 23.3638 38.5344 25.7044 37.6298 27.8883C36.7252 30.0722 35.3994 32.0565 33.7279 33.7279C32.0565 35.3994 30.0722 36.7252 27.8883 37.6298C25.7044 38.5344 23.3638 39 21 39C18.6362 39 16.2956 38.5344 14.1117 37.6298C11.9278 36.7252 9.94353 35.3994 8.27208 33.7279C6.60062 32.0565 5.27475 30.0722 4.37017 27.8883C3.46558 25.7044 3 23.3638 3 21C3 16.2261 4.89642 11.6477 8.27208 8.27208C11.6477 4.89642 16.2261 3 21 3C25.7739 3 30.3523 4.89642 33.7279 8.27208C37.1036 11.6477 39 16.2261 39 21Z" stroke="#0A3641" stroke-width="2.4" stroke-linecap="round" stroke-linejoin="round"/>
</svg>
