<svg width="42" height="43" viewBox="0 0 42 43" fill="none" xmlns="http://www.w3.org/2000/svg">
<path d="M28.5869 15.5183H38L32.0018 9.53914C30.0707 7.61535 27.6652 6.2319 25.0272 5.52787C22.3892 4.82384 19.6116 4.82405 16.9737 5.52847C14.3358 6.23288 11.9306 7.61669 9.99973 9.54077C8.0689 11.4648 6.68056 13.8614 5.97427 16.4895M4.00189 34.859V25.4817M4.00189 25.4817H13.415M4.00189 25.4817L9.99823 31.4609C11.9293 33.3847 14.3348 34.7681 16.9728 35.4721C19.6108 36.1762 22.3884 36.176 25.0263 35.4715C27.6642 34.7671 30.0694 33.3833 32.0003 31.4592C33.9311 29.5352 35.3194 27.1386 36.0257 24.5105M38 6.14099V15.5145" stroke="#0A3641" stroke-width="2.4" stroke-linecap="round" stroke-linejoin="round"/>
</svg>
