<?xml version="1.0" encoding="UTF-8"?>
<svg id="Layer_1" data-name="Layer 1" xmlns="http://www.w3.org/2000/svg" viewBox="0 0 24 25">
  <path d="M3.5,19.5c-.14,0-.26-.05-.36-.14-.1-.09-.14-.21-.14-.35,0-.08.02-.16.05-.23.03-.07.09-.13.16-.17l8.29-6.12v-1.79c0-.14.05-.26.15-.36.1-.1.22-.14.36-.14.51,0,.94-.18,1.31-.55.37-.36.55-.8.55-1.31s-.18-.94-.54-1.3c-.36-.36-.79-.54-1.31-.54s-.94.18-1.31.53c-.37.36-.55.79-.55,1.29h-1c0-.79.28-1.46.83-2,.56-.55,1.23-.82,2.03-.82s1.47.27,2.02.82c.55.55.82,1.22.82,2.02,0,.71-.22,1.32-.67,1.84-.45.52-1.01.84-1.7.96v1.34l8.31,6.12c.07.04.12.1.16.17.03.07.05.15.05.23,0,.14-.05.26-.14.35-.1.1-.21.14-.36.14H3.5ZM5.04,18.5h13.94l-6.98-5.13-6.96,5.13Z" style="fill: #0a3641;"/>
</svg>