<svg width="21" height="20" viewBox="0 0 21 20" fill="none" xmlns="http://www.w3.org/2000/svg">
<path d="M9.88788 1.6125C9.93017 1.50933 10.0022 1.42107 10.0948 1.35896C10.1874 1.29684 10.2964 1.26367 10.4079 1.26367C10.5194 1.26367 10.6284 1.29684 10.721 1.35896C10.8136 1.42107 10.8856 1.50933 10.9279 1.6125L13.0529 6.7235C13.0927 6.81913 13.158 6.90194 13.2419 6.96281C13.3257 7.02368 13.4246 7.06025 13.5279 7.0685L19.0459 7.5105C19.5449 7.5505 19.7469 8.1735 19.3669 8.4985L15.1629 12.1005C15.0843 12.1677 15.0258 12.2552 14.9937 12.3535C14.9616 12.4517 14.9572 12.5569 14.9809 12.6575L16.2659 18.0425C16.2917 18.1505 16.2849 18.2638 16.2464 18.368C16.2079 18.4722 16.1394 18.5626 16.0495 18.6279C15.9596 18.6932 15.8524 18.7303 15.7414 18.7347C15.6304 18.7391 15.5206 18.7105 15.4259 18.6525L10.7009 15.7675C10.6127 15.7136 10.5113 15.6851 10.4079 15.6851C10.3045 15.6851 10.2031 15.7136 10.1149 15.7675L5.38988 18.6535C5.29514 18.7115 5.18533 18.7401 5.07434 18.7357C4.96334 18.7313 4.85613 18.6942 4.76625 18.6289C4.67636 18.5636 4.60784 18.4732 4.56933 18.369C4.53082 18.2648 4.52405 18.1515 4.54988 18.0435L5.83488 12.6575C5.85871 12.5569 5.85433 12.4517 5.82222 12.3534C5.79011 12.2551 5.73151 12.1676 5.65288 12.1005L1.44888 8.4985C1.36422 8.42633 1.30289 8.33066 1.27264 8.22361C1.24239 8.11656 1.24459 8.00294 1.27897 7.89715C1.31334 7.79135 1.37834 7.69813 1.46573 7.6293C1.55312 7.56047 1.65897 7.51912 1.76988 7.5105L7.28788 7.0685C7.39113 7.06025 7.4901 7.02368 7.57391 6.96281C7.65771 6.90194 7.7231 6.81913 7.76288 6.7235L9.88788 1.6125Z" fill="#F5F5F5" stroke="#969696" stroke-width="1.5" stroke-linecap="round" stroke-linejoin="round"/>
</svg>
